<svg xmlns="http://www.w3.org/2000/svg" viewBox="0 0 512 512" height="120" width="120"><defs><style>.cls-1{fill:#fff;}</style></defs><path class="cls-1" d="M411.6,183.28l-34.35-54.84a17,17,0,0,0-14.34-7.94H149.07a17,17,0,0,0-14.34,7.94l-34.35,54.84c-17.73,28.31-2,67.69,31.12,72.19a54.61,54.61,0,0,0,7.25.48,52.24,52.24,0,0,0,39.06-17.52,52.31,52.31,0,0,0,78.13,0,52.3,52.3,0,0,0,78.12,0A52.44,52.44,0,0,0,373.12,256a53.94,53.94,0,0,0,7.25-.48C413.61,251,429.38,211.65,411.6,183.28Zm-38.37,89.66a67.54,67.54,0,0,1-15.62-2v58.4H154.37v-58.4a64.93,64.93,0,0,1-25.14,1.37,66.23,66.23,0,0,1-8.68-1.9V374.56a16.91,16.91,0,0,0,16.93,16.94H374.6a16.92,16.92,0,0,0,16.94-16.94V270.4a54.86,54.86,0,0,1-8.68,1.9,72.56,72.56,0,0,1-9.63.64Z"/></svg>
