<svg xmlns="http://www.w3.org/2000/svg" viewBox="0 0 512 512" height="80" width="80"><defs><style>.cls-1{fill:#fff;}</style></defs><path class="cls-1" d="M442.15,169l-41.1-65.6a20.26,20.26,0,0,0-17.16-9.5H128.08a20.29,20.29,0,0,0-17.16,9.5L69.83,169c-21.21,33.88-2.41,81,37.23,86.37a65.79,65.79,0,0,0,8.68.57,62.52,62.52,0,0,0,46.73-21,62.56,62.56,0,0,0,93.45,0,62.57,62.57,0,0,0,93.46,0,62.72,62.72,0,0,0,46.73,21,65.12,65.12,0,0,0,8.68-.57C444.55,250.05,463.42,202.94,442.15,169ZM396.24,276.26a80.7,80.7,0,0,1-18.68-2.4v69.87H134.41V273.86a83.92,83.92,0,0,1-18.67,2.4,84.83,84.83,0,0,1-11.4-.76A78.62,78.62,0,0,1,94,273.22V397.84a20.25,20.25,0,0,0,20.27,20.26H397.89a20.25,20.25,0,0,0,20.26-20.26V273.22a63.57,63.57,0,0,1-10.39,2.28,87.4,87.4,0,0,1-11.52.76Z"/></svg>
