<?xml version="1.0" standalone="no"?>
<!DOCTYPE svg PUBLIC "-//W3C//DTD SVG 20010904//EN"
 "http://www.w3.org/TR/2001/REC-SVG-20010904/DTD/svg10.dtd">
<svg version="1.0" xmlns="http://www.w3.org/2000/svg"
 width="260.000000pt" height="260.000000pt" viewBox="0 0 260.000000 260.000000"
 preserveAspectRatio="xMidYMid meet">
<metadata>
Created by potrace 1.11, written by Peter Selinger 2001-2013
</metadata>
<g transform="translate(0.000000,260.000000) scale(0.100000,-0.100000)"
fill="#000000" stroke="none">
<path d="M500 2218 c-25 -13 -49 -42 -88 -106 -30 -48 -78 -125 -107 -172
-120 -190 -136 -226 -140 -320 -5 -121 76 -253 185 -304 35 -16 65 -21 135
-21 82 0 97 3 156 32 35 18 75 43 88 57 l24 25 36 -31 c19 -17 60 -43 91 -57
47 -22 69 -26 150 -26 84 0 101 4 152 29 31 16 69 41 84 57 l27 29 41 -33
c140 -113 335 -114 472 -2 l41 34 28 -29 c15 -15 55 -41 88 -57 54 -24 74 -28
152 -28 71 0 100 5 135 21 148 69 220 250 166 412 -22 63 -274 460 -309 486
-28 21 -36 21 -800 21 -717 0 -774 -1 -807 -17z"/>
<path d="M359 1173 c0 -10 -1 -180 -1 -379 -1 -333 0 -363 17 -392 11 -17 31
-36 46 -42 23 -10 663 -14 1622 -10 l127 0 38 34 37 34 0 386 1 387 -46 -8
c-50 -8 -95 -8 -155 -2 l-40 4 0 -200 0 -200 -705 -1 -705 -1 1 191 c0 105 -1
196 -4 202 -2 7 -17 10 -40 6 -50 -8 -98 -7 -149 1 -37 6 -43 5 -44 -10z"/>
</g>
</svg>
